# Blender 3.5.1
# www.blender.org
g enemy_interceptor_enemy_interceptor
v 0.000000 -1.000000 0.000000
v 0.723607 -0.447220 0.525725
v -0.276388 -0.447220 0.850649
v -0.894426 -0.447216 0.000000
v -0.276388 -0.447220 -0.850649
v 0.723607 -0.447220 -0.525725
v 0.276388 0.447220 0.850649
v -0.723607 0.447220 0.525725
v -0.723607 0.447220 -0.525725
v 0.276388 0.447220 -0.850649
v 0.894426 0.447216 0.000000
v 0.000000 1.000000 0.000000
v -0.162456 -0.850654 0.499995
v 0.425323 -0.850654 0.309011
v 0.262869 -0.525738 0.809012
v 0.850648 -0.525736 0.000000
v 0.425323 -0.850654 -0.309011
v -0.525730 -0.850652 0.000000
v -0.688189 -0.525736 0.499997
v -0.162456 -0.850654 -0.499995
v -0.688189 -0.525736 -0.499997
v 0.262869 -0.525738 -0.809012
v 0.951058 0.000000 0.309013
v 0.951058 0.000000 -0.309013
v 0.000000 0.000000 1.000000
v 0.587786 0.000000 0.809017
v -0.951058 0.000000 0.309013
v -0.587786 0.000000 0.809017
v -0.587786 0.000000 -0.809017
v -0.951058 0.000000 -0.309013
v 0.587786 0.000000 -0.809017
v 0.000000 0.000000 -1.000000
v 0.688189 0.525736 0.499997
v -0.262869 0.525738 0.809012
v -0.850648 0.525736 0.000000
v -0.262869 0.525738 -0.809012
v 0.688189 0.525736 -0.499997
v 0.162456 0.850654 0.499995
v 0.525730 0.850652 0.000000
v -0.425323 0.850654 0.309011
v -0.425323 0.850654 -0.309011
v 0.162456 0.850654 -0.499995
vn 0.1024 -0.9435 0.3151
vn 0.7002 -0.6617 0.2680
vn -0.2680 -0.9435 0.1947
vn -0.2680 -0.9435 -0.1947
vn 0.1024 -0.9435 -0.3151
vn 0.9050 -0.3304 0.2680
vn 0.0247 -0.3304 0.9435
vn -0.8897 -0.3304 0.3151
vn -0.5746 -0.3304 -0.7488
vn 0.5346 -0.3304 -0.7779
vn 0.8026 -0.1256 0.5831
vn -0.3066 -0.1256 0.9435
vn -0.9921 -0.1256 -0.0000
vn -0.3066 -0.1256 -0.9435
vn 0.8026 -0.1256 -0.5831
vn 0.4089 0.6617 0.6284
vn -0.4713 0.6617 0.5831
vn -0.7002 0.6617 -0.2680
vn 0.0385 0.6617 -0.7488
vn 0.7240 0.6617 -0.1947
vn 0.2680 0.9435 -0.1947
vn 0.4911 0.7947 -0.3568
vn 0.4089 0.6617 -0.6284
vn -0.1024 0.9435 -0.3151
vn -0.1876 0.7947 -0.5773
vn -0.4713 0.6617 -0.5831
vn -0.3313 0.9435 -0.0000
vn -0.6071 0.7947 -0.0000
vn -0.7002 0.6617 0.2680
vn -0.1024 0.9435 0.3151
vn -0.1876 0.7947 0.5773
vn 0.0385 0.6617 0.7488
vn 0.2680 0.9435 0.1947
vn 0.4911 0.7947 0.3568
vn 0.7240 0.6617 0.1947
vn 0.8897 0.3304 -0.3151
vn 0.7947 0.1876 -0.5773
vn 0.5746 0.3304 -0.7488
vn -0.0247 0.3304 -0.9435
vn -0.3035 0.1876 -0.9342
vn -0.5346 0.3304 -0.7779
vn -0.9050 0.3304 -0.2680
vn -0.9822 0.1876 -0.0000
vn -0.9050 0.3304 0.2680
vn -0.5346 0.3304 0.7779
vn -0.3035 0.1876 0.9342
vn -0.0247 0.3304 0.9435
vn 0.5746 0.3304 0.7488
vn 0.7947 0.1876 0.5773
vn 0.8897 0.3304 0.3151
vn 0.3066 0.1256 -0.9435
vn 0.3035 -0.1876 -0.9342
vn 0.0247 -0.3304 -0.9435
vn -0.8026 0.1256 -0.5831
vn -0.7947 -0.1876 -0.5773
vn -0.8897 -0.3304 -0.3151
vn -0.8026 0.1256 0.5831
vn -0.7947 -0.1876 0.5773
vn -0.5746 -0.3304 0.7488
vn 0.3066 0.1256 0.9435
vn 0.3035 -0.1876 0.9342
vn 0.5346 -0.3304 0.7779
vn 0.9921 0.1256 -0.0000
vn 0.9822 -0.1876 -0.0000
vn 0.9050 -0.3304 -0.2680
vn 0.4713 -0.6617 -0.5831
vn 0.1876 -0.7947 -0.5773
vn -0.0385 -0.6617 -0.7488
vn -0.4089 -0.6617 -0.6284
vn -0.4911 -0.7947 -0.3568
vn -0.7240 -0.6617 -0.1947
vn -0.7240 -0.6617 0.1947
vn -0.4911 -0.7947 0.3568
vn -0.4089 -0.6617 0.6284
vn 0.7002 -0.6617 -0.2680
vn 0.6071 -0.7947 -0.0000
vn 0.3313 -0.9435 -0.0000
vn -0.0385 -0.6617 0.7488
vn 0.1876 -0.7947 0.5773
vn 0.4713 -0.6617 0.5831
vt 0.181819 0.000000
vt 0.909091 0.000000
vt 0.727273 0.000000
vt 0.545455 0.000000
vt 0.363637 0.000000
vt 0.272728 0.157461
vt 1.000000 0.157461
vt 0.090910 0.157461
vt 0.818182 0.157461
vt 0.636364 0.157461
vt 0.454546 0.157461
vt 0.181819 0.314921
vt 0.000000 0.314921
vt 0.909091 0.314921
vt 0.727273 0.314921
vt 0.545455 0.314921
vt 0.363637 0.314921
vt 0.454546 0.472382
vt 0.636364 0.472382
vt 0.818182 0.472382
vt 0.090910 0.472382
vt 0.272728 0.472382
vt 0.954545 0.078731
vt 0.136365 0.078731
vt 0.318182 0.078731
vt 0.227273 0.078731
vt 0.181819 0.157461
vt 0.363637 0.157461
vt 0.500000 0.078731
vt 0.409092 0.078731
vt 0.772727 0.078731
vt 0.863636 0.078731
vt 0.909091 0.157461
vt 0.590909 0.078731
vt 0.681818 0.078731
vt 0.727273 0.157461
vt 0.545455 0.157461
vt 0.318182 0.236191
vt 0.409092 0.236191
vt 0.136365 0.236191
vt 0.227273 0.236191
vt 0.863636 0.236191
vt 0.045455 0.236191
vt 0.954545 0.236191
vt 0.681818 0.236191
vt 0.772727 0.236191
vt 0.500000 0.236191
vt 0.590909 0.236191
vt 0.272728 0.314921
vt 0.090910 0.314921
vt 0.818182 0.314921
vt 0.636364 0.314921
vt 0.454546 0.314921
vt 0.136365 0.393651
vt 0.227273 0.393651
vt 0.409092 0.393651
vt 0.318182 0.393651
vt 0.863636 0.393651
vt 0.045455 0.393651
vt 0.681818 0.393651
vt 0.772727 0.393651
vt 0.500000 0.393651
vt 0.590909 0.393651
s 0
f 1/1/1 14/26/1 13/24/1
f 2/6/2 14/25/2 16/28/2
f 1/2/3 13/23/3 18/32/3
f 1/3/4 18/31/4 20/35/4
f 1/4/5 20/34/5 17/29/5
f 2/6/6 16/28/6 23/38/6
f 3/8/7 15/27/7 25/40/7
f 4/9/8 19/33/8 27/42/8
f 5/10/9 21/36/9 29/45/9
f 6/11/10 22/37/10 31/47/10
f 2/6/11 23/38/11 26/41/11
f 3/8/12 25/40/12 28/43/12
f 4/9/13 27/42/13 30/46/13
f 5/10/14 29/45/14 32/48/14
f 6/11/15 31/47/15 24/39/15
f 7/12/16 33/49/16 38/55/16
f 8/13/17 34/50/17 40/59/17
f 9/15/18 35/51/18 41/61/18
f 10/16/19 36/52/19 42/63/19
f 11/17/20 37/53/20 39/56/20
f 39/56/21 42/62/21 12/18/21
f 39/56/22 37/53/22 42/62/22
f 37/53/23 10/16/23 42/62/23
f 42/63/24 41/60/24 12/19/24
f 42/63/25 36/52/25 41/60/25
f 36/52/26 9/15/26 41/60/26
f 41/61/27 40/58/27 12/20/27
f 41/61/28 35/51/28 40/58/28
f 35/51/29 8/14/29 40/58/29
f 40/59/30 38/54/30 12/21/30
f 40/59/31 34/50/31 38/54/31
f 34/50/32 7/12/32 38/54/32
f 38/55/33 39/57/33 12/22/33
f 38/55/34 33/49/34 39/57/34
f 33/49/35 11/17/35 39/57/35
f 24/39/36 37/53/36 11/17/36
f 24/39/37 31/47/37 37/53/37
f 31/47/38 10/16/38 37/53/38
f 32/48/39 36/52/39 10/16/39
f 32/48/40 29/45/40 36/52/40
f 29/45/41 9/15/41 36/52/41
f 30/46/42 35/51/42 9/15/42
f 30/46/43 27/42/43 35/51/43
f 27/42/44 8/14/44 35/51/44
f 28/43/45 34/50/45 8/13/45
f 28/43/46 25/40/46 34/50/46
f 25/40/47 7/12/47 34/50/47
f 26/41/48 33/49/48 7/12/48
f 26/41/49 23/38/49 33/49/49
f 23/38/50 11/17/50 33/49/50
f 31/47/51 32/48/51 10/16/51
f 31/47/52 22/37/52 32/48/52
f 22/37/53 5/10/53 32/48/53
f 29/45/54 30/46/54 9/15/54
f 29/45/55 21/36/55 30/46/55
f 21/36/56 4/9/56 30/46/56
f 27/42/57 28/44/57 8/14/57
f 27/42/58 19/33/58 28/44/58
f 19/33/59 3/7/59 28/44/59
f 25/40/60 26/41/60 7/12/60
f 25/40/61 15/27/61 26/41/61
f 15/27/62 2/6/62 26/41/62
f 23/38/63 24/39/63 11/17/63
f 23/38/64 16/28/64 24/39/64
f 16/28/65 6/11/65 24/39/65
f 17/29/66 22/37/66 6/11/66
f 17/29/67 20/34/67 22/37/67
f 20/34/68 5/10/68 22/37/68
f 20/35/69 21/36/69 5/10/69
f 20/35/70 18/31/70 21/36/70
f 18/31/71 4/9/71 21/36/71
f 18/32/72 19/33/72 4/9/72
f 18/32/73 13/23/73 19/33/73
f 13/23/74 3/7/74 19/33/74
f 16/28/75 17/30/75 6/11/75
f 16/28/76 14/25/76 17/30/76
f 14/25/77 1/5/77 17/30/77
f 13/24/78 15/27/78 3/8/78
f 13/24/79 14/26/79 15/27/79
f 14/26/80 2/6/80 15/27/80
g Wings_Wings
v -0.974831 0.000000 -0.029531
v -1.368382 1.123396 0.258109
v -1.368382 1.123396 -0.317170
v -1.700421 0.429099 0.258109
v -1.700421 0.429099 -0.317170
v -0.831133 1.388594 0.258109
v -0.831133 1.388594 -0.317170
v -1.368382 1.123396 -0.029531
v -1.700421 0.429099 -0.029531
v -1.700421 0.000000 0.448509
v -1.700421 0.000000 -0.582249
v -0.519416 1.542465 -0.029531
v -1.700421 0.000000 0.258109
v -1.700421 0.000000 -0.317170
v -1.700421 0.000000 -0.029531
v 0.974831 0.000000 -0.029531
v 1.368382 1.123396 0.258109
v 1.368382 1.123396 -0.317170
v 1.700421 0.429099 0.258109
v 1.700421 0.429099 -0.317170
v 0.831133 1.388594 0.258109
v 0.831133 1.388594 -0.317170
v 1.368382 1.123396 -0.029531
v 1.700421 0.429099 -0.029531
v 1.700421 0.000000 0.448509
v 1.700421 0.000000 -0.582249
v 0.519416 1.542465 -0.029531
v 1.700421 0.000000 0.258109
v 1.700421 0.000000 -0.317170
v 1.700421 0.000000 -0.029531
v -1.368382 -1.123396 0.258109
v -1.368382 -1.123396 -0.317170
v -1.700421 -0.429099 0.258109
v -1.700421 -0.429099 -0.317170
v -0.831133 -1.388594 0.258109
v -0.831133 -1.388594 -0.317170
v -1.368382 -1.123396 -0.029531
v -1.700421 -0.429099 -0.029531
v -0.519416 -1.542465 -0.029531
v 1.368382 -1.123396 0.258109
v 1.368382 -1.123396 -0.317170
v 1.700421 -0.429099 0.258109
v 1.700421 -0.429099 -0.317170
v 0.831133 -1.388594 0.258109
v 0.831133 -1.388594 -0.317170
v 1.368382 -1.123396 -0.029531
v 1.700421 -0.429099 -0.029531
v 0.519416 -1.542465 -0.029531
v -0.634987 0.000000 -0.019236
v -1.126475 0.884481 0.258109
v -1.126475 0.884481 -0.317170
v -1.366959 0.362740 0.258109
v -1.366481 0.365192 -0.317170
v -0.680639 1.083715 0.258109
v -0.680639 1.083715 -0.317170
v -1.126475 0.884481 -0.029531
v -1.368843 0.353892 -0.029531
v -1.360421 0.000000 0.448509
v -1.360421 0.000000 -0.582249
v -0.368921 1.237586 -0.029531
v -1.360421 0.000000 0.258109
v -1.360421 0.000000 -0.317170
v -1.360421 0.000000 -0.029531
v 0.634987 0.000000 -0.019236
v 1.126475 0.884481 0.258109
v 1.126475 0.884481 -0.317170
v 1.366959 0.362740 0.258109
v 1.366481 0.365192 -0.317170
v 0.680639 1.083715 0.258109
v 0.680639 1.083715 -0.317170
v 1.126475 0.884481 -0.029531
v 1.368843 0.353892 -0.029531
v 1.360421 0.000000 0.448509
v 1.360421 0.000000 -0.582249
v 0.368921 1.237586 -0.029531
v 1.360421 0.000000 0.258109
v 1.360421 0.000000 -0.317170
v 1.360421 0.000000 -0.029531
v -1.126475 -0.884481 0.258109
v -1.126475 -0.884481 -0.317170
v -1.366959 -0.362740 0.258109
v -1.366481 -0.365192 -0.317170
v -0.680639 -1.083715 0.258109
v -0.680639 -1.083715 -0.317170
v -1.126475 -0.884481 -0.029531
v -1.368843 -0.353892 -0.029531
v -0.368921 -1.237586 -0.029531
v 1.126475 -0.884481 0.258109
v 1.126475 -0.884481 -0.317170
v 1.366959 -0.362740 0.258109
v 1.366481 -0.365192 -0.317170
v 0.680639 -1.083715 0.258109
v 0.680639 -1.083715 -0.317170
v 1.126475 -0.884481 -0.029531
v 1.368843 -0.353892 -0.029531
v 0.368921 -1.237586 -0.029531
vn -0.4426 0.8967 -0.0000
vn -0.9021 0.4314 -0.0000
vn -1.0000 -0.0000 -0.0000
vn 0.4426 0.8967 -0.0000
vn 0.9021 0.4314 -0.0000
vn 1.0000 -0.0000 -0.0000
vn -0.4426 -0.8967 -0.0000
vn -0.9021 -0.4314 -0.0000
vn 0.4426 -0.8967 -0.0000
vn 0.9021 -0.4314 -0.0000
vn 0.4171 -0.9087 -0.0171
vn 0.9089 -0.4170 0.0034
vn 0.9998 0.0209 -0.0036
vn 0.9998 0.0180 -0.0000
vn 0.9998 0.0201 0.0045
vn 0.9087 -0.4175 -0.0045
vn 0.4171 -0.9087 0.0171
vn 0.9999 0.0166 -0.0000
vn -0.4171 -0.9087 -0.0171
vn -0.9089 -0.4170 0.0034
vn -0.9998 0.0209 -0.0036
vn -0.9998 0.0180 -0.0000
vn -0.9998 0.0201 0.0045
vn -0.9087 -0.4175 -0.0045
vn -0.4171 -0.9087 0.0171
vn -0.9999 0.0166 -0.0000
vn 0.4171 0.9087 -0.0171
vn 0.9089 0.4170 0.0034
vn 0.9998 -0.0209 -0.0036
vn 0.9998 -0.0180 -0.0000
vn 0.9998 -0.0201 0.0045
vn 0.9087 0.4175 -0.0045
vn 0.4171 0.9087 0.0171
vn 0.9999 -0.0166 -0.0000
vn -0.4171 0.9087 -0.0171
vn -0.9089 0.4170 0.0034
vn -0.9998 -0.0209 -0.0036
vn -0.9998 -0.0180 -0.0000
vn -0.9998 -0.0201 0.0045
vn -0.9087 0.4175 -0.0045
vn -0.4171 0.9087 0.0171
vn -0.9999 -0.0166 -0.0000
vn -0.0000 -0.0000 1.0000
vn -0.0000 -0.0000 -1.0000
vn 0.5716 0.2822 0.7705
vn 0.0427 0.4333 0.9002
vn 0.5716 0.2822 -0.7705
vn 0.0526 0.5547 -0.8304
vn -0.5716 0.2822 0.7705
vn -0.0427 0.4333 0.9002
vn -0.5716 0.2822 -0.7705
vn -0.0526 0.5547 -0.8304
vn 0.5716 -0.2822 0.7705
vn 0.0427 -0.4333 0.9002
vn 0.5716 -0.2822 -0.7705
vn 0.0526 -0.5547 -0.8304
vn -0.5716 -0.2822 0.7705
vn -0.0427 -0.4333 0.9002
vn -0.5716 -0.2822 -0.7705
vn -0.0526 -0.5547 -0.8304
vt 0.100000 1.000000
vt 0.100000 0.500000
vt 0.200000 1.000000
vt 0.200000 0.500000
vt -0.000000 1.000000
vt -0.000000 0.500000
vt 0.100000 0.750000
vt 0.200000 0.750000
vt 0.000000 0.000000
vt 0.000000 0.000000
vt -0.000000 0.750000
vt 0.250000 1.000000
vt 0.250000 0.500000
vt 0.250000 0.750000
vt 0.100000 1.000000
vt 0.100000 0.500000
vt 0.200000 1.000000
vt 0.200000 0.500000
vt -0.000000 1.000000
vt -0.000000 0.500000
vt 0.100000 0.750000
vt 0.200000 0.750000
vt 0.000000 0.000000
vt 0.000000 0.000000
vt -0.000000 0.750000
vt 0.250000 1.000000
vt 0.250000 0.500000
vt 0.250000 0.750000
vt 0.100000 1.000000
vt 0.100000 0.500000
vt 0.200000 1.000000
vt 0.200000 0.500000
vt -0.000000 1.000000
vt -0.000000 0.500000
vt 0.100000 0.750000
vt 0.200000 0.750000
vt -0.000000 0.750000
vt 0.100000 1.000000
vt 0.100000 0.500000
vt 0.200000 1.000000
vt 0.200000 0.500000
vt -0.000000 1.000000
vt -0.000000 0.500000
vt 0.100000 0.750000
vt 0.200000 0.750000
vt -0.000000 0.750000
vt 0.100000 1.000000
vt 0.100000 0.500000
vt 0.200000 1.000000
vt 0.200000 0.500000
vt -0.000000 1.000000
vt -0.000000 0.500000
vt 0.100000 0.750000
vt 0.200000 0.750000
vt 0.000000 0.000000
vt 0.000000 0.000000
vt -0.000000 0.750000
vt 0.250000 1.000000
vt 0.250000 0.500000
vt 0.250000 0.750000
vt 0.100000 1.000000
vt 0.100000 0.500000
vt 0.200000 1.000000
vt 0.200000 0.500000
vt -0.000000 1.000000
vt -0.000000 0.500000
vt 0.100000 0.750000
vt 0.200000 0.750000
vt 0.000000 0.000000
vt 0.000000 0.000000
vt -0.000000 0.750000
vt 0.250000 1.000000
vt 0.250000 0.500000
vt 0.250000 0.750000
vt 0.100000 1.000000
vt 0.100000 0.500000
vt 0.200000 1.000000
vt 0.200000 0.500000
vt -0.000000 1.000000
vt -0.000000 0.500000
vt 0.100000 0.750000
vt 0.200000 0.750000
vt -0.000000 0.750000
vt 0.100000 1.000000
vt 0.100000 0.500000
vt 0.200000 1.000000
vt 0.200000 0.500000
vt -0.000000 1.000000
vt -0.000000 0.500000
vt 0.100000 0.750000
vt 0.200000 0.750000
vt -0.000000 0.750000
s 0
f 50/70/81 44/64/81 48/68/81 54/74/81
f 51/71/82 46/66/82 44/64/82 50/70/82
f 57/77/83 55/75/83 46/66/83 51/71/83
f 52/72/83 46/66/83 55/75/83
f 56/76/83 57/77/83 51/71/83 47/67/83
f 47/67/82 51/71/82 50/70/82 45/65/82
f 45/65/81 50/70/81 54/74/81 49/69/81
f 47/67/83 53/73/83 56/76/83
f 65/84/84 69/88/84 63/82/84 59/78/84
f 66/85/85 65/84/85 59/78/85 61/80/85
f 72/91/86 66/85/86 61/80/86 70/89/86
f 67/86/86 70/89/86 61/80/86
f 71/90/86 62/81/86 66/85/86 72/91/86
f 62/81/85 60/79/85 65/84/85 66/85/85
f 60/79/84 64/83/84 69/88/84 65/84/84
f 62/81/86 71/90/86 68/87/86
f 79/98/87 81/100/87 77/96/87 73/92/87
f 80/99/88 79/98/88 73/92/88 75/94/88
f 57/77/83 80/99/83 75/94/83 55/75/83
f 52/72/83 55/75/83 75/94/83
f 56/76/83 76/95/83 80/99/83 57/77/83
f 76/95/88 74/93/88 79/98/88 80/99/88
f 74/93/87 78/97/87 81/100/87 79/98/87
f 76/95/83 56/76/83 53/73/83
f 88/107/89 82/101/89 86/105/89 90/109/89
f 89/108/90 84/103/90 82/101/90 88/107/90
f 72/91/86 70/89/86 84/103/86 89/108/86
f 67/86/86 84/103/86 70/89/86
f 71/90/86 72/91/86 89/108/86 85/104/86
f 85/104/90 89/108/90 88/107/90 83/102/90
f 83/102/89 88/107/89 90/109/89 87/106/89
f 85/104/86 68/87/86 71/90/86
f 98/116/91 102/120/91 96/114/91 92/110/91
f 99/117/92 98/116/92 92/110/92 94/112/92
f 105/123/93 99/117/93 94/112/93 103/121/93
f 100/118/94 103/121/94 94/112/94
f 104/122/95 95/113/95 99/117/95 105/123/95
f 95/113/96 93/111/96 98/116/96 99/117/96
f 93/111/97 97/115/97 102/120/97 98/116/97
f 95/113/98 104/122/98 101/119/98
f 113/130/99 107/124/99 111/128/99 117/134/99
f 114/131/100 109/126/100 107/124/100 113/130/100
f 120/137/101 118/135/101 109/126/101 114/131/101
f 115/132/102 109/126/102 118/135/102
f 119/136/103 120/137/103 114/131/103 110/127/103
f 110/127/104 114/131/104 113/130/104 108/125/104
f 108/125/105 113/130/105 117/134/105 112/129/105
f 110/127/106 116/133/106 119/136/106
f 127/144/107 121/138/107 125/142/107 129/146/107
f 128/145/108 123/140/108 121/138/108 127/144/108
f 105/123/109 103/121/109 123/140/109 128/145/109
f 100/118/110 123/140/110 103/121/110
f 104/122/111 105/123/111 128/145/111 124/141/111
f 124/141/112 128/145/112 127/144/112 122/139/112
f 122/139/113 127/144/113 129/146/113 126/143/113
f 124/141/114 101/119/114 104/122/114
f 136/153/115 138/155/115 134/151/115 130/147/115
f 137/154/116 136/153/116 130/147/116 132/149/116
f 120/137/117 137/154/117 132/149/117 118/135/117
f 115/132/118 118/135/118 132/149/118
f 119/136/119 133/150/119 137/154/119 120/137/119
f 133/150/120 131/148/120 136/153/120 137/154/120
f 131/148/121 135/152/121 138/155/121 136/153/121
f 133/150/122 119/136/122 116/133/122
f 48/68/123 44/64/123 92/110/123 96/114/123
f 45/65/124 49/69/124 97/115/124 93/111/124
f 44/64/123 46/66/123 94/112/123 92/110/123
f 47/67/124 45/65/124 93/111/124 95/113/124
f 54/74/125 48/68/125 96/114/125 102/120/125
f 46/66/126 52/72/126 100/118/126 94/112/126
f 49/69/127 54/74/127 102/120/127 97/115/127
f 53/73/128 47/67/128 95/113/128 101/119/128
f 59/78/123 63/82/123 111/128/123 107/124/123
f 64/83/124 60/79/124 108/125/124 112/129/124
f 61/80/123 59/78/123 107/124/123 109/126/123
f 60/79/124 62/81/124 110/127/124 108/125/124
f 63/82/129 69/88/129 117/134/129 111/128/129
f 67/86/130 61/80/130 109/126/130 115/132/130
f 69/88/131 64/83/131 112/129/131 117/134/131
f 62/81/132 68/87/132 116/133/132 110/127/132
f 73/92/123 77/96/123 125/142/123 121/138/123
f 78/97/124 74/93/124 122/139/124 126/143/124
f 75/94/123 73/92/123 121/138/123 123/140/123
f 74/93/124 76/95/124 124/141/124 122/139/124
f 77/96/133 81/100/133 129/146/133 125/142/133
f 52/72/134 75/94/134 123/140/134 100/118/134
f 81/100/135 78/97/135 126/143/135 129/146/135
f 76/95/136 53/73/136 101/119/136 124/141/136
f 86/105/123 82/101/123 130/147/123 134/151/123
f 83/102/124 87/106/124 135/152/124 131/148/124
f 82/101/123 84/103/123 132/149/123 130/147/123
f 85/104/124 83/102/124 131/148/124 133/150/124
f 90/109/137 86/105/137 134/151/137 138/155/137
f 84/103/138 67/86/138 115/132/138 132/149/138
f 87/106/139 90/109/139 138/155/139 135/152/139
f 68/87/140 85/104/140 133/150/140 116/133/140
